# xmcd CD Database Entry
#
# Track frame offsets:
# 150
# 12177
# 36665
# 54107
# 60177
# 80572
# 101527
# 115947
# 144455
# 154777
# 175270
#
# Disc length: 2684 seconds
#
# Revision: 1
# Processed by: cddbd v1.4PL0 Copyright (c) Steve Scherf et al.
# Submitted via: tcd 2.0b
#
DISCID=850a7a0b
DTITLE=Morbid Angel - Domination
DYEAR=1900
DGENRE=
TTITLE0=Dominate
TTITLE1=Where The Slime Live
TTITLE2=Eyes to See, Ears To Hear
TTITLE3=Melting
TTITLE4=Nothing But Fear
TTITLE5=Dawn Of The Angry
TTITLE6=This Means War
TTITLE7=Caesar's Palace
TTITLE8=Dreaming
TTITLE9=Inquisition (Burn With Me)
TTITLE10=Hatework
EXTD=
EXTT0=
EXTT1=
EXTT2=
EXTT3=
EXTT4=
EXTT5=
EXTT6=
EXTT7=
EXTT8=
EXTT9=
EXTT10=
PLAYORDER=
